<svg xmlns="http://www.w3.org/2000/svg" viewBox="0 0 48 48" role="img" aria-label="OpenAI">
  <g fill="#0F0F0F">
    <path d="M44.5 19.6a11 11 0 0 0-1-9.1 11.3 11.3 0 0 0-12.1-5.4A11 11 0 0 0 14.2 9 11.3 11.3 0 0 0 6.7 14.4a11.4 11.4 0 0 0 1.4 13.4 11 11 0 0 0 1 9 11.3 11.3 0 0 0 12.1 5.5 11 11 0 0 0 8.3 3.7c4.8 0 9-3 10.6-7.5a11.3 11.3 0 0 0 7.5-5.5 11.4 11.4 0 0 0-3.1-13.4Zm-16.7 23.4a8.4 8.4 0 0 1-5.3-1.9l.3-.1 8.7-5a1.4 1.4 0 0 0 .7-1.3v-12.3l3.7 2.1.1.1V35a8.5 8.5 0 0 1-8.2 8Zm-18.3-7.8a8.4 8.4 0 0 1-1-5.7l.2.2 8.8 5a1.4 1.4 0 0 0 1.4 0l10.7-6.2v4.3l.1.1-8.8 5a8.5 8.5 0 0 1-11.4-2.7Zm-2.3-19.3a8.4 8.4 0 0 1 4.5-3.7v12.4a1.4 1.4 0 0 0 .7 1.3l10.6 6.1-3.7 2.2-.1-.1-8.8-5.1A8.5 8.5 0 0 1 7.2 15.9Zm30.4 7 -10.6-6.2L30.7 14.5l.1.1 8.8 5a8.5 8.5 0 0 1-1.3 15.4V22.6a1.5 1.5 0 0 0-.7-1.4Zm3.7-5.5-.3-.1-8.7-5a1.4 1.4 0 0 0-1.4 0l-10.7 6.2v-4.3l-.1-.1 8.8-5a8.5 8.5 0 0 1 12.4 8.3Zm-23.2 7.6L18.3 22 14.6 24l-.1.1v6.2l.1.1 5.5 3.1 5.5-3.1V24.2Z"/>
  </g>
</svg>
